<svg width="1960" height="980" viewBox="0 0 1960 980" fill="none" xmlns="http://www.w3.org/2000/svg">
<rect width="1960" height="980" fill="#1E1E1E"/>
<g clip-path="url(#clip0_0_1)">
<rect width="1960" height="980" fill="black"/>
<line x1="1960" y1="71.5" x2="1.04904e-05" y2="71.5" stroke="#CC5500" stroke-opacity="0.2"/>
<line x1="1960" y1="141.5" x2="1.04904e-05" y2="141.5" stroke="#CC5500" stroke-opacity="0.2"/>
<line x1="1960" y1="701.5" x2="1.04904e-05" y2="701.5" stroke="#CC5500" stroke-opacity="0.2"/>
<line x1="1960" y1="281.5" x2="1.04904e-05" y2="281.5" stroke="#CC5500" stroke-opacity="0.2"/>
<line x1="1960" y1="351.5" x2="1.04904e-05" y2="351.5" stroke="#CC5500" stroke-opacity="0.2"/>
<line x1="1960" y1="421.5" x2="1.04904e-05" y2="421.5" stroke="#CC5500" stroke-opacity="0.2"/>
<line x1="1960" y1="491.5" x2="1.04904e-05" y2="491.5" stroke="#CC5500" stroke-opacity="0.2"/>
<line x1="1960" y1="561.5" x2="1.04904e-05" y2="561.5" stroke="#CC5500" stroke-opacity="0.2"/>
<line x1="1960" y1="631.5" x2="1.04904e-05" y2="631.5" stroke="#CC5500" stroke-opacity="0.2"/>
<line x1="1960" y1="771.5" x2="1.04904e-05" y2="771.5" stroke="#CC5500" stroke-opacity="0.2"/>
<line x1="1960" y1="841.5" x2="1.04904e-05" y2="841.5" stroke="#CC5500" stroke-opacity="0.2"/>
<line x1="1960" y1="911.5" x2="-0.00011158" y2="911.5" stroke="#CC5500" stroke-opacity="0.2"/>
<line x1="1960" y1="1.5" x2="1.04904e-05" y2="1.5" stroke="#CC5500" stroke-opacity="0.2"/>
<line x1="1960" y1="211.5" x2="1.04904e-05" y2="211.5" stroke="#CC5500" stroke-opacity="0.2"/>
<line x1="0.5" x2="0.5" y2="980" stroke="#CC5500" stroke-opacity="0.2"/>
<line x1="70.5" x2="70.5" y2="980" stroke="#CC5500" stroke-opacity="0.2"/>
<line x1="140.5" x2="140.5" y2="980" stroke="#CC5500" stroke-opacity="0.2"/>
<line x1="210.5" x2="210.5" y2="980" stroke="#CC5500" stroke-opacity="0.2"/>
<line x1="280.5" x2="280.5" y2="980" stroke="#CC5500" stroke-opacity="0.2"/>
<line x1="350.5" x2="350.5" y2="980" stroke="#CC5500" stroke-opacity="0.2"/>
<line x1="420.5" x2="420.5" y2="980" stroke="#CC5500" stroke-opacity="0.2"/>
<line x1="490.5" x2="490.5" y2="980" stroke="#CC5500" stroke-opacity="0.2"/>
<line x1="560.5" x2="560.5" y2="980" stroke="#CC5500" stroke-opacity="0.2"/>
<line x1="630.5" x2="630.5" y2="980" stroke="#CC5500" stroke-opacity="0.2"/>
<line x1="700.5" x2="700.5" y2="980" stroke="#CC5500" stroke-opacity="0.2"/>
<line x1="770.5" x2="770.5" y2="980" stroke="#CC5500" stroke-opacity="0.2"/>
<line x1="840.5" x2="840.5" y2="980" stroke="#CC5500" stroke-opacity="0.2"/>
<line x1="910.5" x2="910.5" y2="980" stroke="#CC5500" stroke-opacity="0.2"/>
<line x1="980.5" x2="980.5" y2="980" stroke="#CC5500" stroke-opacity="0.2"/>
<line x1="1050.5" x2="1050.5" y2="980" stroke="#CC5500" stroke-opacity="0.2"/>
<path d="M1960 0V980" stroke="#CC5500" stroke-opacity="0.2"/>
<path d="M1120 0V980" stroke="#CC5500" stroke-opacity="0.2"/>
<line x1="1190.5" x2="1190.5" y2="980" stroke="#CC5500" stroke-opacity="0.2"/>
<line x1="1260.5" x2="1260.5" y2="980" stroke="#CC5500" stroke-opacity="0.2"/>
<line x1="1330.5" x2="1330.5" y2="980" stroke="#CC5500" stroke-opacity="0.2"/>
<line x1="1400.5" x2="1400.5" y2="980" stroke="#CC5500" stroke-opacity="0.2"/>
<line x1="1470.5" x2="1470.5" y2="980" stroke="#CC5500" stroke-opacity="0.2"/>
<line x1="1540.5" x2="1540.5" y2="980" stroke="#CC5500" stroke-opacity="0.2"/>
<line x1="1610.5" x2="1610.5" y2="980" stroke="#CC5500" stroke-opacity="0.2"/>
<line x1="1680.5" x2="1680.5" y2="980" stroke="#CC5500" stroke-opacity="0.2"/>
<line x1="1750.5" x2="1750.5" y2="980" stroke="#CC5500" stroke-opacity="0.2"/>
<line x1="1820.5" x2="1820.5" y2="980" stroke="#CC5500" stroke-opacity="0.2"/>
<line x1="1890.5" x2="1890.5" y2="980" stroke="#CC5500" stroke-opacity="0.2"/>
<rect x="212" y="421" width="70" height="70" transform="rotate(-90 212 421)" fill="url(#paint0_linear_0_1)"/>
<rect x="70" y="210" width="70" height="70" transform="rotate(-90 70 210)" fill="url(#paint1_linear_0_1)"/>
<rect y="491" width="70" height="70" transform="rotate(-90 0 491)" fill="url(#paint2_linear_0_1)"/>
<rect x="1261" y="70" width="70" height="70" transform="rotate(-90 1261 70)" fill="url(#paint3_linear_0_1)"/>
<rect x="1191" y="561" width="70" height="70" transform="rotate(-90 1191 561)" fill="url(#paint4_linear_0_1)"/>
<rect x="1120" y="351" width="70" height="70" transform="rotate(-90 1120 351)" fill="url(#paint5_linear_0_1)"/>
<rect x="1821" y="981" width="70" height="70" transform="rotate(-90 1821 981)" fill="url(#paint6_linear_0_1)"/>
<rect x="1612" y="911" width="70" height="70" transform="rotate(-90 1612 911)" fill="url(#paint7_linear_0_1)"/>
<rect x="1821" y="491" width="70" height="70" transform="rotate(-90 1821 491)" fill="url(#paint8_linear_0_1)"/>
<rect x="1890" y="71" width="70" height="70" transform="rotate(-90 1890 71)" fill="url(#paint9_linear_0_1)"/>
<rect x="1891" y="701" width="70" height="70" transform="rotate(-90 1891 701)" fill="url(#paint10_linear_0_1)"/>
<rect x="1682" y="771" width="70" height="70" transform="rotate(-90 1682 771)" fill="url(#paint11_linear_0_1)"/>
<rect x="1682" y="421" width="70" height="70" transform="rotate(-90 1682 421)" fill="url(#paint12_linear_0_1)"/>
<rect x="1752" y="210" width="70" height="70" transform="rotate(-90 1752 210)" fill="url(#paint13_linear_0_1)"/>
<rect x="1612" y="139" width="70" height="70" transform="rotate(-90 1612 139)" fill="url(#paint14_linear_0_1)"/>
<rect x="1542" y="631" width="70" height="70" transform="rotate(-90 1542 631)" fill="url(#paint15_linear_0_1)"/>
<rect x="1331" y="771" width="70" height="70" transform="rotate(-90 1331 771)" fill="url(#paint16_linear_0_1)"/>
<rect x="1470" y="281" width="70" height="70" transform="rotate(-90 1470 281)" fill="url(#paint17_linear_0_1)"/>
<rect x="912" y="911" width="70" height="70" transform="rotate(-90 912 911)" fill="url(#paint18_linear_0_1)"/>
<rect x="982" y="701" width="70" height="70" transform="rotate(-90 982 701)" fill="url(#paint19_linear_0_1)"/>
<rect x="911" y="280" width="70" height="70" transform="rotate(-90 911 280)" fill="url(#paint20_linear_0_1)"/>
<rect x="842" y="70" width="70" height="70" transform="rotate(-90 842 70)" fill="url(#paint21_linear_0_1)"/>
<rect x="842" y="491" width="70" height="70" transform="rotate(-90 842 491)" fill="url(#paint22_linear_0_1)"/>
<rect x="700" y="351" width="70" height="70" transform="rotate(-90 700 351)" fill="url(#paint23_linear_0_1)"/>
<rect x="700" y="841" width="70" height="70" transform="rotate(-90 700 841)" fill="url(#paint24_linear_0_1)"/>
<rect x="490" y="771" width="70" height="70" transform="rotate(-90 490 771)" fill="url(#paint25_linear_0_1)"/>
<rect x="630" y="560" width="70" height="70" transform="rotate(-90 630 560)" fill="url(#paint26_linear_0_1)"/>
<rect x="560" y="140" width="70" height="70" transform="rotate(-90 560 140)" fill="url(#paint27_linear_0_1)"/>
<rect x="281" y="981" width="70" height="70" transform="rotate(-90 281 981)" fill="url(#paint28_linear_0_1)"/>
<rect x="282" y="70" width="70" height="70" transform="rotate(-90 282 70)" fill="url(#paint29_linear_0_1)"/>
<rect x="70" y="841" width="70" height="70" transform="rotate(-90 70 841)" fill="url(#paint30_linear_0_1)"/>
<rect x="351" y="631" width="70" height="70" transform="rotate(-90 351 631)" fill="url(#paint31_linear_0_1)"/>
<rect x="421" y="280" width="70" height="70" transform="rotate(-90 421 280)" fill="url(#paint32_linear_0_1)"/>
</g>
<defs>
<linearGradient id="paint0_linear_0_1" x1="247" y1="421" x2="247" y2="491" gradientUnits="userSpaceOnUse">
<stop stop-opacity="0"/>
<stop offset="1" stop-color="#CC5500" stop-opacity="0.4"/>
</linearGradient>
<linearGradient id="paint1_linear_0_1" x1="105" y1="210" x2="105" y2="280" gradientUnits="userSpaceOnUse">
<stop stop-opacity="0"/>
<stop offset="1" stop-color="#CC5500" stop-opacity="0.4"/>
</linearGradient>
<linearGradient id="paint2_linear_0_1" x1="35" y1="491" x2="35" y2="561" gradientUnits="userSpaceOnUse">
<stop stop-opacity="0"/>
<stop offset="1" stop-color="#CC5500" stop-opacity="0.4"/>
</linearGradient>
<linearGradient id="paint3_linear_0_1" x1="1296" y1="70" x2="1296" y2="140" gradientUnits="userSpaceOnUse">
<stop stop-opacity="0"/>
<stop offset="1" stop-color="#CC5500" stop-opacity="0.4"/>
</linearGradient>
<linearGradient id="paint4_linear_0_1" x1="1226" y1="561" x2="1226" y2="631" gradientUnits="userSpaceOnUse">
<stop stop-opacity="0"/>
<stop offset="1" stop-color="#CC5500" stop-opacity="0.4"/>
</linearGradient>
<linearGradient id="paint5_linear_0_1" x1="1155" y1="351" x2="1155" y2="421" gradientUnits="userSpaceOnUse">
<stop stop-opacity="0"/>
<stop offset="1" stop-color="#CC5500" stop-opacity="0.4"/>
</linearGradient>
<linearGradient id="paint6_linear_0_1" x1="1856" y1="981" x2="1856" y2="1051" gradientUnits="userSpaceOnUse">
<stop stop-opacity="0"/>
<stop offset="1" stop-color="#CC5500" stop-opacity="0.4"/>
</linearGradient>
<linearGradient id="paint7_linear_0_1" x1="1647" y1="911" x2="1647" y2="981" gradientUnits="userSpaceOnUse">
<stop stop-opacity="0"/>
<stop offset="1" stop-color="#CC5500" stop-opacity="0.4"/>
</linearGradient>
<linearGradient id="paint8_linear_0_1" x1="1856" y1="491" x2="1856" y2="561" gradientUnits="userSpaceOnUse">
<stop stop-opacity="0"/>
<stop offset="1" stop-color="#CC5500" stop-opacity="0.4"/>
</linearGradient>
<linearGradient id="paint9_linear_0_1" x1="1925" y1="71" x2="1925" y2="141" gradientUnits="userSpaceOnUse">
<stop stop-opacity="0"/>
<stop offset="1" stop-color="#CC5500" stop-opacity="0.4"/>
</linearGradient>
<linearGradient id="paint10_linear_0_1" x1="1926" y1="701" x2="1926" y2="771" gradientUnits="userSpaceOnUse">
<stop stop-opacity="0"/>
<stop offset="1" stop-color="#CC5500" stop-opacity="0.4"/>
</linearGradient>
<linearGradient id="paint11_linear_0_1" x1="1717" y1="771" x2="1717" y2="841" gradientUnits="userSpaceOnUse">
<stop stop-opacity="0"/>
<stop offset="1" stop-color="#CC5500" stop-opacity="0.4"/>
</linearGradient>
<linearGradient id="paint12_linear_0_1" x1="1717" y1="421" x2="1717" y2="491" gradientUnits="userSpaceOnUse">
<stop stop-opacity="0"/>
<stop offset="1" stop-color="#CC5500" stop-opacity="0.4"/>
</linearGradient>
<linearGradient id="paint13_linear_0_1" x1="1787" y1="210" x2="1787" y2="280" gradientUnits="userSpaceOnUse">
<stop stop-opacity="0"/>
<stop offset="1" stop-color="#CC5500" stop-opacity="0.4"/>
</linearGradient>
<linearGradient id="paint14_linear_0_1" x1="1647" y1="139" x2="1647" y2="209" gradientUnits="userSpaceOnUse">
<stop stop-opacity="0"/>
<stop offset="1" stop-color="#CC5500" stop-opacity="0.4"/>
</linearGradient>
<linearGradient id="paint15_linear_0_1" x1="1577" y1="631" x2="1577" y2="701" gradientUnits="userSpaceOnUse">
<stop stop-opacity="0"/>
<stop offset="1" stop-color="#CC5500" stop-opacity="0.4"/>
</linearGradient>
<linearGradient id="paint16_linear_0_1" x1="1366" y1="771" x2="1366" y2="841" gradientUnits="userSpaceOnUse">
<stop stop-opacity="0"/>
<stop offset="1" stop-color="#CC5500" stop-opacity="0.4"/>
</linearGradient>
<linearGradient id="paint17_linear_0_1" x1="1505" y1="281" x2="1505" y2="351" gradientUnits="userSpaceOnUse">
<stop stop-opacity="0"/>
<stop offset="1" stop-color="#CC5500" stop-opacity="0.4"/>
</linearGradient>
<linearGradient id="paint18_linear_0_1" x1="947" y1="911" x2="947" y2="981" gradientUnits="userSpaceOnUse">
<stop stop-opacity="0"/>
<stop offset="1" stop-color="#CC5500" stop-opacity="0.4"/>
</linearGradient>
<linearGradient id="paint19_linear_0_1" x1="1017" y1="701" x2="1017" y2="771" gradientUnits="userSpaceOnUse">
<stop stop-opacity="0"/>
<stop offset="1" stop-color="#CC5500" stop-opacity="0.4"/>
</linearGradient>
<linearGradient id="paint20_linear_0_1" x1="946" y1="280" x2="946" y2="350" gradientUnits="userSpaceOnUse">
<stop stop-opacity="0"/>
<stop offset="1" stop-color="#CC5500" stop-opacity="0.4"/>
</linearGradient>
<linearGradient id="paint21_linear_0_1" x1="877" y1="70" x2="877" y2="140" gradientUnits="userSpaceOnUse">
<stop stop-opacity="0"/>
<stop offset="1" stop-color="#CC5500" stop-opacity="0.4"/>
</linearGradient>
<linearGradient id="paint22_linear_0_1" x1="877" y1="491" x2="877" y2="561" gradientUnits="userSpaceOnUse">
<stop stop-opacity="0"/>
<stop offset="1" stop-color="#CC5500" stop-opacity="0.4"/>
</linearGradient>
<linearGradient id="paint23_linear_0_1" x1="735" y1="351" x2="735" y2="421" gradientUnits="userSpaceOnUse">
<stop stop-opacity="0"/>
<stop offset="1" stop-color="#CC5500" stop-opacity="0.4"/>
</linearGradient>
<linearGradient id="paint24_linear_0_1" x1="735" y1="841" x2="735" y2="911" gradientUnits="userSpaceOnUse">
<stop stop-opacity="0"/>
<stop offset="1" stop-color="#CC5500" stop-opacity="0.4"/>
</linearGradient>
<linearGradient id="paint25_linear_0_1" x1="525" y1="771" x2="525" y2="841" gradientUnits="userSpaceOnUse">
<stop stop-opacity="0"/>
<stop offset="1" stop-color="#CC5500" stop-opacity="0.4"/>
</linearGradient>
<linearGradient id="paint26_linear_0_1" x1="665" y1="560" x2="665" y2="630" gradientUnits="userSpaceOnUse">
<stop stop-opacity="0"/>
<stop offset="1" stop-color="#CC5500" stop-opacity="0.4"/>
</linearGradient>
<linearGradient id="paint27_linear_0_1" x1="595" y1="140" x2="595" y2="210" gradientUnits="userSpaceOnUse">
<stop stop-opacity="0"/>
<stop offset="1" stop-color="#CC5500" stop-opacity="0.4"/>
</linearGradient>
<linearGradient id="paint28_linear_0_1" x1="316" y1="981" x2="316" y2="1051" gradientUnits="userSpaceOnUse">
<stop stop-opacity="0"/>
<stop offset="1" stop-color="#CC5500" stop-opacity="0.4"/>
</linearGradient>
<linearGradient id="paint29_linear_0_1" x1="317" y1="70" x2="317" y2="140" gradientUnits="userSpaceOnUse">
<stop stop-opacity="0"/>
<stop offset="1" stop-color="#CC5500" stop-opacity="0.4"/>
</linearGradient>
<linearGradient id="paint30_linear_0_1" x1="105" y1="841" x2="105" y2="911" gradientUnits="userSpaceOnUse">
<stop stop-opacity="0"/>
<stop offset="1" stop-color="#CC5500" stop-opacity="0.4"/>
</linearGradient>
<linearGradient id="paint31_linear_0_1" x1="386" y1="631" x2="386" y2="701" gradientUnits="userSpaceOnUse">
<stop stop-opacity="0"/>
<stop offset="1" stop-color="#CC5500" stop-opacity="0.4"/>
</linearGradient>
<linearGradient id="paint32_linear_0_1" x1="456" y1="280" x2="456" y2="350" gradientUnits="userSpaceOnUse">
<stop stop-opacity="0"/>
<stop offset="1" stop-color="#CC5500" stop-opacity="0.4"/>
</linearGradient>
<clipPath id="clip0_0_1">
<rect width="1960" height="980" fill="white"/>
</clipPath>
</defs>
</svg>
