<svg width="500" height="500" viewBox="0 0 500 500" fill="none" xmlns="http://www.w3.org/2000/svg">
<rect width="500" height="500" fill="#1E1E1E"/>
<g clip-path="url(#clip0_0_1)">
<path d="M249.5 499C387.295 499 499 387.295 499 249.5C499 111.705 387.295 0 249.5 0C111.705 0 0 111.705 0 249.5C0 387.295 111.705 499 249.5 499Z" fill="white"/>
<path d="M249.5 499C387.295 499 499 387.295 499 249.5C499 111.705 387.295 0 249.5 0C111.705 0 0 111.705 0 249.5C0 387.295 111.705 499 249.5 499Z" fill="black" fill-opacity="0.2"/>
<path d="M249.5 499C387.295 499 499 387.295 499 249.5C499 111.705 387.295 0 249.5 0C111.705 0 0 111.705 0 249.5C0 387.295 111.705 499 249.5 499Z" stroke="white"/>
<path d="M235.999 59H301.398V361.767C267.849 368.133 243.215 370.683 216.466 370.683C136.616 370.683 95 334.583 95 265.35C95 198.65 139.166 155.35 207.549 155.35C218.166 155.35 226.232 156.183 235.999 158.733V59ZM235.999 211.383C228.89 208.982 221.418 207.831 213.916 207.983C180.783 207.983 161.683 228.367 161.683 264.067C161.683 298.9 179.949 318 213.499 318C220.716 318 226.666 317.583 235.999 316.3V211.383ZM405.464 160V311.633C405.464 363.867 401.647 388.933 390.181 410.583C379.564 431.4 365.548 444.567 336.665 459L275.932 430.117C304.815 416.533 318.831 404.617 327.748 386.367C337.098 367.683 340.065 346.017 340.065 289.117V159.983L405.464 160ZM340.065 59.35H405.464V126.45H340.065V59.35Z" fill="#092E20"/>
</g>
<defs>
<clipPath id="clip0_0_1">
<rect width="500" height="500" fill="white"/>
</clipPath>
</defs>
</svg>
