<svg width="257" height="257" viewBox="0 0 257 257" fill="none" xmlns="http://www.w3.org/2000/svg">
<path d="M128.5 256.5C199.192 256.5 256.5 199.192 256.5 128.5C256.5 57.8075 199.192 0.5 128.5 0.5C57.8075 0.5 0.5 57.8075 0.5 128.5C0.5 199.192 57.8075 256.5 128.5 256.5Z" fill="black"/>
<path d="M128.5 256.5C199.192 256.5 256.5 199.192 256.5 128.5C256.5 57.8075 199.192 0.5 128.5 0.5C57.8075 0.5 0.5 57.8075 0.5 128.5C0.5 199.192 57.8075 256.5 128.5 256.5Z" fill="black" fill-opacity="0.2"/>
<path d="M128.5 256.5C199.192 256.5 256.5 199.192 256.5 128.5C256.5 57.8075 199.192 0.5 128.5 0.5C57.8075 0.5 0.5 57.8075 0.5 128.5C0.5 199.192 57.8075 256.5 128.5 256.5Z" stroke="white"/>
<path d="M213.13 224.53L98.84 77.3H77.3V179.66H94.53V99.18L199.61 234.95C204.35 231.77 208.87 228.29 213.13 224.53Z" fill="url(#paint0_linear_1_3)"/>
<path d="M181.13 77.3H164.06V179.7H181.13V77.3Z" fill="url(#paint1_linear_1_3)"/>
<defs>
<linearGradient id="paint0_linear_1_3" x1="133.207" y1="182.061" x2="178.576" y2="238.29" gradientUnits="userSpaceOnUse">
<stop stop-color="white"/>
<stop offset="1" stop-color="white" stop-opacity="0"/>
</linearGradient>
<linearGradient id="paint1_linear_1_3" x1="172.583" y1="77.2712" x2="172.276" y2="152.473" gradientUnits="userSpaceOnUse">
<stop stop-color="white"/>
<stop offset="1" stop-color="white" stop-opacity="0"/>
</linearGradient>
</defs>
</svg>
