<svg width="500" height="500" viewBox="0 0 500 500" fill="none" xmlns="http://www.w3.org/2000/svg">
<rect width="500" height="500" fill="#1E1E1E"/>
<circle cx="143.75" cy="249.75" r="143.75" fill="#FFAC1C"/>
<path d="M174.833 202.917L170 207.75V257.917C170 291.583 170.667 309.25 171.833 312.083C174.5 317.75 181.667 320.25 192.833 319.417C208.833 318.083 208.333 319.917 208.333 258.583V206.25L204.167 202.25C200.833 198.75 198.5 198.083 190 198.083C180.833 198.083 179.167 198.583 174.833 202.917Z" fill="white"/>
<path d="M71 202.25L66.6667 206.25V248.25C66.6667 288.083 66.8334 290.75 70.3334 297.917C74.3334 306.583 81.3334 313.417 90 317.75C94.5 319.917 100.167 320.583 114.167 320.583C129.667 320.583 133.5 319.917 139.333 316.917C147 312.917 156 303.417 158.667 296.583C159.667 293.917 160.333 275.083 160.167 248.917L160 205.583L155.833 201.75C149.333 196.25 133.833 196.417 127.667 202.25L123.333 206.25L123.167 241.75C123 261.25 123 278.083 123.167 279.083C123.5 281.25 114.833 282.917 109 281.75L105 281.083V243.583V206.25L100.667 202.25C96.8334 198.75 94.5 198.083 85.8334 198.083C77.1667 198.083 74.8334 198.75 71 202.25Z" fill="white"/>
<circle cx="356.25" cy="249.75" r="143.75" fill="#0096FF"/>
<path d="M291.333 205.083C292.833 206.583 293.333 217.917 293.333 245.75C293.333 273.75 293.833 284.917 295.333 285.75C296.333 286.417 302.167 286.917 308.167 286.917H319.167L320 246.583C320.667 213.25 321.333 206.083 323.333 204.75C327 202.417 345.667 202.75 348 205.083C351.333 208.417 350.833 288.083 347.5 296.083C341 311.25 331 316.25 307 316.417C293.333 316.417 288.667 315.75 283.667 313.25C276.167 309.417 269.167 302.25 266.833 295.917C264.167 289.083 264.333 207.75 267 205.083C268.167 203.917 273.5 203.083 279.167 203.083C284.833 203.083 290.167 203.917 291.333 205.083Z" fill="white"/>
<path d="M399.333 218.083C405.667 226.25 411.167 232.917 411.667 232.917C412.167 232.917 417.5 226.25 423.833 217.917C431.833 207.417 436.167 203.083 438.667 203.083C443.833 203.083 460 216.083 460 220.25C460 222.083 457.5 226.583 454.5 230.417C451.5 234.25 445.167 242.25 440.333 248.25L431.667 259.25L445.833 277.25C453.667 287.083 460 296.583 460 298.25C460 301.583 442.833 316.417 439 316.417C436 316.417 432.833 313.25 421.667 298.417C416.667 291.917 412.167 286.417 411.667 286.417C411.167 286.417 405.833 292.75 400 300.583C394 308.25 387.833 315.083 386.167 315.583C381 317.417 363.333 303.75 363.333 297.917C363.333 296.083 369.667 286.583 377.333 276.917L391.333 259.25L377.333 241.583C369.5 231.583 363.333 222.25 363.333 220.25C363.333 215.917 379 203.083 384.333 203.083C386.833 203.083 391.333 207.417 399.333 218.083Z" fill="white"/>
</svg>
